# xmcd
#
# Track frame offsets: 
#        150
#        12865
#        29124
#        47373
#        65474
#        83537
#        102551
#        113655
#        127072
#        141603
#        159062
#        173163
#        188178
#        207606
#        232854
#        251762
#        264470
#        282239
#
# Disc length: 3998 seconds
#
# Revision: 0
# Processed by: cddbd v1.5.2PL0 Copyright (c) Steve Scherf et al.
# Submitted via: ExactAudioCopy v0.99pb4
#
DISCID=fe0f9c12
DTITLE=Various Artist - Radio 2 - 1000 Klassiekers - Vol. 8 - CD3
DYEAR=2016
DGENRE=Chanson
TTITLE0=Hooverphonic - The Night Before
TTITLE1=Gers Pardoel - Ik Neem Je Mee
TTITLE2=Aloe Blacc - I Need A Dollar
TTITLE3=Ricky Martin - Livin' La Vida Loca
TTITLE4=Joe Harris - Drink Rode Wijn
TTITLE5=Miami Sound Machine - Conga!
TTITLE6=Eddy Wally - Chérie
TTITLE7=Petula Clark - La Nuit N'En Finit Plus
TTITLE8=Will Ferdy - Christine
TTITLE9=Freddie Aguilar - Anak
TTITLE10=Marva - Rode Rozen In De Sneeuw
TTITLE11=Nilsson - Without You
TTITLE12=Philippe Robrecht - Magie
TTITLE13=Spandau Ballet - True
TTITLE14=Bram Vermeulen - De Steen
TTITLE15=The Archies - Sugar Sugar
TTITLE16=The Human League - Don't You Want Me
TTITLE17=Lipps, Inc. - Funkytown
EXTD=
EXTT0=
EXTT1=
EXTT2=
EXTT3=
EXTT4=
EXTT5=
EXTT6=
EXTT7=
EXTT8=
EXTT9=
EXTT10=
EXTT11=
EXTT12=
EXTT13=
EXTT14=
EXTT15=
EXTT16=
EXTT17=
PLAYORDER=
